<svg xmlns="http://www.w3.org/2000/svg" xmlns:xlink="http://www.w3.org/1999/xlink" viewBox="0 0 1024 1024">
  <defs>
    <style>
      .b{fill:#ceddef}.f{fill:#fff}.h{fill:#e9503c}
    </style>
    <linearGradient id="a" x1="350.55" x2="350.55" y1="46.65" y2="699.41" gradientUnits="userSpaceOnUse">
      <stop offset=".25" stop-color="#b7c3d1" stop-opacity="0"/>
      <stop offset="1" stop-color="#b7c3d1"/>
    </linearGradient>
    <linearGradient id="b" x1="673.03" x2="673.03" y1="46.65" y2="699.41" xlink:href="#a"/>
    <radialGradient id="c" cx="520.22" cy="445.26" r="518.07" xlink:href="#a"/>
    <clipPath id="d">
      <path fill="none" d="M512 838.72c191 0 249.65-120.51 236.41-202.12s-35.06-75.29-49.17-140.44c-9.46-43.65-32.4-83.93-71.11-112C574.44 345.28 512 347.65 512 347.65v.1s-62.58-2.37-116.44 36.51c-38.81 28-61.82 68.26-71.3 111.87-14.15 65.1-36 58.79-49.3 140.33s45.51 202 237 202"/>
    </clipPath>
  </defs>
  <path d="M435.65 362.92s-23.16-115.21-39.35-220.44c-5.69-37-44.56-57.84-83.44-40.78s-51.2 63.53-46.45 107.15c3.23 29.76 29.39 127 90.54 211" class="b"/>
  <path fill="url(#a)" d="M435.65 362.92s-23.16-115.21-39.35-220.44c-5.69-37-44.56-57.84-83.44-40.78s-51.2 63.53-46.45 107.15c3.23 29.76 29.39 127 90.54 211"/>
  <path d="M588.15 362.84s23.1-115.31 39.24-220.63c5.68-37 44.45-57.88 83.22-40.8S761.67 165 757 208.64c-3.23 29.78-29.32 127.15-90.31 211.13" class="b"/>
  <path fill="url(#b)" d="M588.15 362.84s23.1-115.31 39.24-220.63c5.68-37 44.45-57.88 83.22-40.8S761.67 165 757 208.64c-3.23 29.78-29.32 127.15-90.31 211.13"/>
  <path d="M512 838.72c191 0 249.65-120.51 236.41-202.12s-35.06-75.29-49.17-140.44c-9.46-43.65-32.4-83.93-71.11-112C574.44 345.28 512 347.65 512 347.65v.1s-62.58-2.37-116.44 36.51c-38.81 28-61.82 68.26-71.3 111.87-14.15 65.1-36 58.79-49.3 140.33s45.51 202 237 202" class="b"/>
  <path fill="url(#c)" d="M512 838.72c191 0 249.65-120.51 236.41-202.12s-35.06-75.29-49.17-140.44c-9.46-43.65-32.4-83.93-71.11-112C574.44 345.28 512 347.65 512 347.65v.1s-62.58-2.37-116.44 36.51c-38.81 28-61.82 68.26-71.3 111.87-14.15 65.1-36 58.79-49.3 140.33s45.51 202 237 202"/>
  <path d="M407.68 562.5c-19 1.9-21.81 20.86-22.76 27.5s-3.79 72.06-3.79 72.06-.95 27.5 23.7 26.55a31.2 31.2 0 0 0 21-9.12 37.15 37.15 0 0 0 11-27.6L435.35 590a28.18 28.18 0 0 0-27.67-27.5zM616 562.58c18.92 1.9 21.75 20.88 22.7 27.52s3.78 72.12 3.78 72.12 1 27.52-23.64 26.57a31.09 31.09 0 0 1-21-9.13A37.27 37.27 0 0 1 587 652l1.49-61.94A28.16 28.16 0 0 1 616 562.58z" class="f"/>
  <path fill="#e9503d" d="M512 762.8c6.68 0 27.23-9.83 36.88-21.82 8.14-10.1 8.27-22 5.68-28.47-2.31-5.78-6.8-9.68-11.32-12.28a37.28 37.28 0 0 0-18.59-4.8H512v-.18h-12.71a37.46 37.46 0 0 0-18.64 4.75c-4.53 2.59-9 6.49-11.34 12.27-2.6 6.51-2.47 18.35 5.69 28.45 9.68 12 30.29 21.8 37 21.8"/>
  <path d="M873.24 454.72h-69.21l101.45 153.6-101.45 153.6h69.21l101.46-153.6-101.46-153.6zM219.97 454.72h-69.21L49.3 608.32l101.46 153.6h69.21l-101.45-153.6 101.45-153.6z" class="h"/>
  <g clip-path="url(#d)">
    <path d="M561 845.19l-1.37-16.94a73.62 73.62 0 0 0-31.66-55c-6-4.09-16-5.73-16-5.73v-.24s-10 1.64-16 5.73A73.48 73.48 0 0 0 464.21 828l-1.38 16.93z" class="f"/>
  </g>
</svg>
